<svg width="48" height="48" viewBox="0 0 48 48" fill="none" xmlns="http://www.w3.org/2000/svg">
<path d="M4.00024 23.9998C4.00024 26.6262 4.51756 29.2269 5.52265 31.6534C6.52775 34.0799 8.00094 36.2847 9.85811 38.1419C11.7153 39.9991 13.9201 41.4723 16.3466 42.4773C18.7731 43.4824 21.3738 43.9998 24.0002 43.9998C26.6267 43.9998 29.2274 43.4824 31.6539 42.4773C34.0804 41.4723 36.2852 39.9991 38.1424 38.1419C39.9996 36.2847 41.4727 34.0799 42.4778 31.6534C43.4829 29.2269 44.0002 26.6262 44.0002 23.9998L24.0002 23.9998H4.00024Z" fill="white"/>
<path d="M44 23.9996C44 21.3732 43.4827 18.7725 42.4776 16.346C41.4725 13.9195 39.9993 11.7147 38.1421 9.8575C36.285 8.00033 34.0802 6.52714 31.6537 5.52204C29.2272 4.51695 26.6264 3.99963 24 3.99963C21.3736 3.99963 18.7728 4.51695 16.3463 5.52204C13.9198 6.52714 11.715 8.00033 9.85786 9.8575C8.00069 11.7147 6.5275 13.9195 5.52241 16.346C4.51731 18.7725 4 21.3732 4 23.9996L24 23.9996H44Z" fill="#CD3131"/>
<circle cx="24.0005" cy="23.9993" r="6" fill="white"/>
<path d="M24 43.9996C35.046 43.9996 44 35.0456 44 23.9996C44 12.9536 35.046 3.99963 24 3.99963C12.954 3.99963 4 12.9536 4 23.9996C4 35.0456 12.954 43.9996 24 43.9996Z" stroke="#173EA5" stroke-width="1.5" stroke-linecap="round" stroke-linejoin="round"/>
<path d="M23.9999 29.9998C25.5912 29.9998 27.1173 29.3676 28.2425 28.2424C29.3677 27.1172 29.9999 25.5911 29.9999 23.9998C29.9999 22.4085 29.3677 20.8823 28.2425 19.7571C27.1173 18.6319 25.5912 17.9998 23.9999 17.9998C22.4086 17.9998 20.8825 18.6319 19.7572 19.7571C18.632 20.8823 17.9999 22.4085 17.9999 23.9998C17.9999 25.5911 18.632 27.1172 19.7572 28.2424C20.8825 29.3676 22.4086 29.9998 23.9999 29.9998V29.9998Z" stroke="#173EA5" stroke-width="1.5" stroke-linecap="round" stroke-linejoin="round"/>
<path d="M4 23.9995H18M30 23.9995H44" stroke="#173EA5" stroke-width="1.5"/>
</svg>
