<svg width="152" height="41" viewBox="0 0 152 41" fill="none" xmlns="http://www.w3.org/2000/svg">
<path d="M0.558594 6.06836C1.97656 5.59961 3.30664 5.16602 4.54883 4.76758C5.80273 4.36914 7.12109 3.99414 8.50391 3.64258C9.88672 3.2793 11.2109 2.99219 12.4766 2.78125C13.4492 2.61719 14.4453 2.53516 15.4648 2.53516C17.1641 2.53516 18.2773 2.58203 18.8047 2.67578C19.6016 2.82813 20.3516 3.07422 21.0547 3.41406C21.7695 3.75391 22.4023 4.21094 22.9531 4.78516C23.5156 5.34766 23.9727 6.01562 24.3242 6.78906C24.4648 7.10547 24.5352 7.43945 24.5352 7.79102C24.5352 9.10352 23.8145 10.7207 22.373 12.6426C20.9434 14.5645 19.502 16.2402 18.0488 17.6699C16.6074 19.0996 15.5293 20.125 14.8145 20.7461L17.9785 31.8379L13.373 35.1602L5.30469 12.1152C5.28125 12.1152 5.16992 12.2266 4.9707 12.4492C4.77148 12.6719 4.50781 12.9648 4.17969 13.3281C3.86328 13.6797 3.66406 13.8965 3.58203 13.9785C3.54688 13.9785 3.42969 13.7266 3.23047 13.2227C3.04297 12.7187 2.78516 12.0215 2.45703 11.1309C2.14062 10.2285 1.7832 9.23242 1.38477 8.14258C0.974609 7.04102 0.699219 6.34961 0.558594 6.06836ZM11.9316 10.9551L13.373 16.1406C14.0996 15.4023 15.002 14.3945 16.0801 13.1172C17.1582 11.8398 17.6973 10.9141 17.6973 10.3398C17.6973 10.1172 17.6035 9.98828 17.416 9.95312C16.8887 9.83594 16.3672 9.77734 15.8516 9.77734C14.3047 9.77734 12.998 10.1699 11.9316 10.9551ZM37.7363 14.9629C38.5684 15.4082 39.2422 16.0117 39.7578 16.7734C40.2852 17.5234 40.666 18.373 40.9004 19.3223C41.1465 20.2598 41.2695 21.2383 41.2695 22.2578C41.2695 23.1016 41.1992 23.916 41.0586 24.7012C40.9297 25.4863 40.748 26.207 40.5137 26.8633C40.2793 27.5195 40.0039 28.0762 39.6875 28.5332C38.9492 29.6348 38.1582 30.584 37.3145 31.3809C36.4707 32.1777 35.6094 32.8223 34.7305 33.3145C33.8516 33.7949 32.9785 34.1465 32.1113 34.3691C31.2559 34.6035 30.4062 34.7207 29.5625 34.7207C28.5664 34.7207 27.6172 34.5625 26.7148 34.2461C25.8242 33.9414 25.0625 33.5371 24.4297 33.0332C23.3867 32.166 22.5723 31 21.9863 29.5352C21.4004 28.0586 21.1074 26.5 21.1074 24.8594C21.1074 22.0352 21.9219 19.7559 23.5508 18.0215C24.9453 16.5332 26.3867 15.4141 27.875 14.6641C29.3633 13.9023 30.8867 13.5215 32.4453 13.5215C33.3594 13.5215 34.2383 13.6387 35.082 13.873C35.9258 14.0957 36.8105 14.459 37.7363 14.9629ZM36.6992 17.916C36.5 18.8066 36.0664 19.5918 35.3984 20.2715C34.7422 20.9512 34.0977 21.291 33.4648 21.291C33.1484 21.291 32.8672 21.209 32.6211 21.0449C32.2695 20.7637 32.0938 20.2715 32.0938 19.5684C32.0938 19.0293 32.2695 18.4961 32.6211 17.9688C32.9844 17.4414 33.5527 17.0254 34.3262 16.7207C33.5527 16.7207 32.8027 16.8672 32.0762 17.1602C31.3613 17.4531 30.7461 17.834 30.2305 18.3027C29.7148 18.7598 29.2988 19.2812 28.9824 19.8672C28.6777 20.4414 28.5254 21.0215 28.5254 21.6074C28.5254 22.6973 29.0293 23.5645 30.0371 24.209C30.9746 24.8066 31.8652 25.1055 32.709 25.1055C33.541 25.1055 34.2793 24.8301 34.9238 24.2793C35.5684 23.7168 36.0605 23.002 36.4004 22.1348C36.7402 21.2559 36.9102 20.3887 36.9102 19.5332C36.9102 18.9473 36.8398 18.4082 36.6992 17.916ZM38.3516 4.62695L47.2812 0.882812L48.582 21.1855L55.9297 17.1602L63.5586 18.3027L53.6094 25.9316L62.9785 32.998L63.4004 40.0469L49.584 30.1152L50.0234 38.7461L41.6562 38.9043L40.0742 8.37109L37.4902 8.95117L38.3516 4.62695ZM75.793 24.2793L80.0293 29.3945C79.6895 30.3789 78.8809 31.2812 77.6035 32.1016C76.3379 32.9219 74.8262 33.5664 73.0684 34.0352C71.3223 34.5156 69.5762 34.7559 67.8301 34.7559C66.2832 34.7559 64.9004 34.5508 63.6816 34.1406C62.4746 33.7305 61.543 33.1094 60.8867 32.2773C59.75 30.8477 59.1816 29.0195 59.1816 26.793C59.1816 25.0352 59.498 23.3066 60.1309 21.6074C60.7754 19.8965 61.4551 18.7012 62.1699 18.0215C63.0254 17.2129 63.9512 16.5391 64.9473 16C65.9551 15.4609 66.998 15.0566 68.0762 14.7871C69.1543 14.5176 70.2617 14.3828 71.3984 14.3828C72.8867 14.3828 74.2988 14.623 75.6348 15.1035C76.9824 15.5723 78.1602 16.2578 79.168 17.1602L69.5176 28.6738C70.373 28.6738 71.1816 28.498 71.9434 28.1465C72.7168 27.7832 73.4258 27.2734 74.0703 26.6172C74.7148 25.9492 75.2891 25.1699 75.793 24.2793ZM70.9238 20.1836C70.3496 19.8906 69.7637 19.7441 69.166 19.7441C68.5332 19.7441 67.918 19.873 67.3203 20.1309C66.7344 20.3887 66.3184 20.6934 66.0723 21.0449C65.3457 21.9824 64.9824 23.0137 64.9824 24.1387C64.9824 24.5488 65.0234 24.9414 65.1055 25.3164C65.1875 25.6914 65.3281 26.207 65.5273 26.8633L70.9238 20.1836ZM61.8887 7.50977L71.2578 2.32422L75.2832 8.51172L63.9102 10.6738L61.8887 7.50977Z" fill="white"/>
<path d="M96.7461 28.5332L93.4238 36.0215L85.2148 36.1621L75.7227 11.9746L85.3555 12.3965L89.5391 23.4883L92.0176 16.791L90.1191 11.9746L99.7695 12.3965L103.936 23.4883L108.119 12.6953L117.049 13.5566L107.979 36.4434L99.6113 36.1621L96.7461 28.5332ZM123.096 37.3047L115.168 37.7441L114.746 18.8828L112.145 19.4629L113.006 15.1387L121.936 11.3945L123.096 37.3047ZM117.33 0.742188C118.162 0.742188 118.877 0.882812 119.475 1.16406C120.084 1.43359 120.582 1.76758 120.969 2.16602C121.355 2.55273 121.619 2.89258 121.76 3.18555C121.9 3.50195 121.971 3.84766 121.971 4.22266C121.971 4.79688 121.848 5.38281 121.602 5.98047C121.355 6.56641 121.057 7.07031 120.705 7.49219C120.354 7.91406 120.02 8.16016 119.703 8.23047C119.094 8.32422 118.637 8.37109 118.332 8.37109C117.559 8.37109 116.885 8.23633 116.311 7.9668C115.736 7.69727 115.279 7.30469 114.939 6.78906C114.6 6.27344 114.389 5.66992 114.307 4.97852C114.307 3.98242 114.547 3.05078 115.027 2.18359C115.52 1.31641 116.287 0.835937 117.33 0.742188ZM121.145 4.62695L130.074 0.882812L131.375 21.1855L138.723 17.1602L146.352 18.3027L136.402 25.9316L145.771 32.998L146.193 40.0469L132.377 30.1152L132.816 38.7461L124.449 38.9043L122.867 8.37109L120.283 8.95117L121.145 4.62695ZM151.889 37.3047L143.961 37.7441L143.539 18.8828L140.938 19.4629L141.799 15.1387L150.729 11.3945L151.889 37.3047ZM146.123 0.742188C146.955 0.742188 147.67 0.882812 148.268 1.16406C148.877 1.43359 149.375 1.76758 149.762 2.16602C150.148 2.55273 150.412 2.89258 150.553 3.18555C150.693 3.50195 150.764 3.84766 150.764 4.22266C150.764 4.79688 150.641 5.38281 150.395 5.98047C150.148 6.56641 149.85 7.07031 149.498 7.49219C149.146 7.91406 148.812 8.16016 148.496 8.23047C147.887 8.32422 147.43 8.37109 147.125 8.37109C146.352 8.37109 145.678 8.23633 145.104 7.9668C144.529 7.69727 144.072 7.30469 143.732 6.78906C143.393 6.27344 143.182 5.66992 143.1 4.97852C143.1 3.98242 143.34 3.05078 143.82 2.18359C144.312 1.31641 145.08 0.835937 146.123 0.742188Z" fill="#CD3131"/>
</svg>
